<?xml version="1.0" encoding="utf-8"?>
<!-- Generator: Adobe Illustrator 27.0.1, SVG Export Plug-In . SVG Version: 6.00 Build 0)  -->
<svg version="1.1" id="Calque_1" xmlns="http://www.w3.org/2000/svg" xmlns:xlink="http://www.w3.org/1999/xlink" x="0px" y="0px"
	 viewBox="0 0 97.6 159.3" style="enable-background:new 0 0 97.6 159.3;" xml:space="preserve">
<path d="M84.4,108.9C84.4,108.9,84.4,108.9,84.4,108.9L84.4,108.9C84.4,108.9,84.4,108.9,84.4,108.9
	C84.4,108.9,84.4,108.9,84.4,108.9z"/>
<g>
	<path d="M62.4,53.1l2.1-5.9l2.3,13.5l-0.5,6.6l1.5,0.1l0.1-0.8l2.6,15.3l1.5-0.3l-3.6-21L70.9,30l8.2-22.4l-1.4-0.5l-6.3,17.3
		l0.4-4.7l-1.5-0.1l-0.8,10.2l-4.3,11.8l-1.7-10.2l-1.5,0.3l2.2,12.7l-3,8.3L62.4,53.1z M69,35.3l-1.6,19.4l-1.7-10.3L69,35.3z"/>
	<rect x="63" y="41" transform="matrix(0.9314 -0.3641 0.3641 0.9314 -20.9507 27.97)" width="1.5" height="57.1"/>
	<rect x="39.8" y="72.3" transform="matrix(0.706 -0.7083 0.7083 0.706 -72.2505 63.642)" width="1.5" height="93"/>
	<path d="M56.4,112.2l3.9-8l15.4,20.6l1.2-0.9L61,102.7l3.5-7.3c0-0.1,0.1-0.2,0-0.3s-0.1-0.2-0.2-0.2l-0.6-0.3
		c-0.2-0.1-0.4,0-0.5,0.2l-3.2,6.6L32.6,64.7l-1.2,0.9l27.8,37.3l-3.4,7c-0.8-0.8-2.2-1.2-3.6-1.2c-0.6,0-1.1,0.1-1.6,0.3L20.7,75.2
		l-1.1,1l29.6,33.4c-0.7,0.5-1.2,1.3-1.2,2.1c0,1.6,1.9,2.8,4.2,2.8c0.1,0,0.1,0,0.2,0c0.3,0,0.7-0.1,1-0.1l21.5,24.3l1.1-1
		l-21.1-23.8C55.6,113.4,56.1,112.9,56.4,112.2z"/>
	<path d="M51.4,87.6c0,0.1,0,0.2,0.1,0.3c0.1,0.1,0.2,0.1,0.3,0.1l0.7,0.1c0,0,0,0,0,0c0.1,0,0.2,0,0.3-0.1c0.1-0.1,0.1-0.2,0.1-0.3
		l1.2-13.2l21.1,36.2l1.3-0.8L54.3,72l0.1-1c1,0.5,2.5,0.4,3.8-0.1c1-0.4,1.9-1.1,2.5-1.9c0.6-0.8,0.7-1.7,0.4-2.4
		c-0.6-1.5-2.9-2-5.1-1.1c-1.6,0.7-2.8,2-2.9,3.5L53,69.8l-9.3-16l-1.3,0.8l10.3,17.8L51.4,87.6z"/>
</g>
</svg>
